# xmcd
#
# Track frame offsets:
#	150
#	10909
#	25653
#	42163
#	58770
#	77281
#	93849
#	108963
#	125539
#	145621
#	159191
#	176272
#	196451
#	212711
#	229369
#	246602
#	263507
#	279343
#
# Disc length: 3894
#
# Revision: 1
# Processed by: cddbd v1.5.1PL0 Copyright (c) Steve Scherf et al.
# Submitted via: audiograbber 1.83.01
# Normalized: r0:DSETVAR1
#
DISCID=e40f3412
DTITLE=Various Artist - RC45
DYEAR=1997
DGENRE=Country
TTITLE0=Garth Brooks - Long Neck Bottle
TTITLE1=Brooks and Dunn - He's Got You
TTITLE2=Martina McBride - A Broken Wing
TTITLE3=Michael Peterson - From Here To Eternity
TTITLE4=Toby Kieth - I'm So Happy I Can't Stop Crying
TTITLE5=Kinleys - Please
TTITLE6=Diamond Rio - Imagine That
TTITLE7=Patty Loveless - You Don't Seam To Miss Me
TTITLE8=Sammy Kershaw - Love Of My Life
TTITLE9=Wynonna - When Love Starts Talkin'
TTITLE10=Lonestar - You Walked In
TTITLE11=Alan Jackson - Between The Devil And Me
TTITLE12=John Michael Montgomery - Angel In My Eyes
TTITLE13=LeAnn Rimes - On The Side Of Angels
TTITLE14=Alabama - Of Course I'm Alright
TTITLE15=Tracy Lawrence - The Coast Is Clear
TTITLE16=Ty Herndon - I Have To Surrender
TTITLE17=David Lee Murphy - All Lit Up In Love
EXTD=
EXTT0=
EXTT1=
EXTT2=
EXTT3=
EXTT4=
EXTT5=
EXTT6=
EXTT7=
EXTT8=
EXTT9=
EXTT10=
EXTT11=
EXTT12=
EXTT13=
EXTT14=
EXTT15=
EXTT16=
EXTT17=
PLAYORDER=
